<svg width="24" height="24" viewBox="0 0 24 24" fill="none" xmlns="http://www.w3.org/2000/svg">
<g clip-path="url(#clip0)">
<path d="M13.931 10.245L15.952 8.203L13.174 7.8L11.951 5.147L10.729 7.8L7.951 8.202L9.972 10.244L9.48 13.147L11.951 11.756L14.423 13.147L13.931 10.245V10.245ZM4.45 14.763C3.584 13.381 3.076 11.751 3.076 10C3.076 5.029 7.105 1 12.076 1C17.047 1 21.076 5.029 21.076 10C21.076 11.792 20.546 13.458 19.643 14.861C19.036 14.551 18.415 14.276 17.781 14.042C18.593 12.899 19.076 11.506 19.076 10C19.076 6.14 15.935 3 12.076 3C8.217 3 5.076 6.14 5.076 10C5.076 11.476 5.538 12.844 6.32 13.974C5.684 14.199 5.06 14.462 4.45 14.763V14.763ZM19.757 17.213L17.423 20.535C15.82 19.611 13.975 19.071 12 19.062C10.025 19.071 8.18 19.611 6.577 20.535L4.243 17.213C6.509 15.827 9.155 15.011 12 15.002C14.845 15.011 17.491 15.827 19.757 17.213ZM24 20H21.641L21.075 23C20.462 21.988 19.687 21.088 18.798 20.32L21.141 16.985C22.229 17.864 23.193 18.833 24 20ZM2.86 16.985L5.203 20.32C4.313 21.089 3.539 21.988 2.926 23L2.36 20H0C0.807 18.833 1.771 17.864 2.86 16.985Z" fill="white"/>
</g>
<defs>
<clipPath id="clip0">
<rect width="24" height="24" fill="white"/>
</clipPath>
</defs>
</svg>
