<svg width="24" height="24" viewBox="0 0 24 24" fill="none" xmlns="http://www.w3.org/2000/svg">
<path d="M18.417 6.75V5.803C18.293 4.292 14.375 4.283 14.269 5.802H14.256V6.75C14.222 8.348 18.47 8.351 18.417 6.75ZM16.35 5.384C17.073 5.384 17.661 5.637 17.661 5.948C17.661 6.259 17.073 6.512 16.35 6.512C15.626 6.512 15.039 6.259 15.039 5.948C15.039 5.637 15.626 5.384 16.35 5.384ZM14.064 9.155V8.208C13.941 6.697 10.022 6.688 9.916 8.207H9.903V9.155C9.869 10.753 14.116 10.756 14.064 9.155V9.155ZM11.996 8.917C11.273 8.917 10.685 8.664 10.685 8.353C10.685 8.041 11.273 7.789 11.996 7.789C12.72 7.789 13.307 8.042 13.307 8.353C13.307 8.665 12.72 8.917 11.996 8.917ZM14.064 4.471V3.525C13.94 2.013 10.022 2.005 9.916 3.524H9.903V4.471C9.869 6.069 14.117 6.073 14.064 4.471ZM11.997 3.105C12.72 3.105 13.308 3.358 13.308 3.669C13.308 3.98 12.72 4.233 11.997 4.233C11.273 4.233 10.686 3.98 10.686 3.669C10.686 3.358 11.273 3.105 11.997 3.105V3.105ZM12 0L1 6L1.009 6.019L1 6.014V18.132L12 24L23 18.131V6.076L12 0V0ZM11.997 1.141L21.914 6.599L12.018 11.984L2.115 6.536L11.997 1.141V1.141ZM21 12.771L13 17.039V14L21 9.647V12.771ZM11 17.039L3 12.771V9.599L11 14V17.039ZM3 13.811L11 18.079V21L3 16.732V13.811V13.811ZM13 18.079L21 13.811V16.732L13 21V18.079ZM5.553 5.802H5.54V6.75C5.506 8.348 9.753 8.351 9.701 6.75V5.803C9.578 4.292 5.659 4.284 5.553 5.802V5.802ZM7.633 6.512C6.91 6.512 6.322 6.259 6.322 5.948C6.322 5.637 6.91 5.383 7.633 5.383C8.357 5.383 8.944 5.636 8.944 5.947C8.944 6.258 8.356 6.512 7.633 6.512V6.512Z" fill="white"/>
</svg>
